<?xml version="1.0" encoding="utf-8"?>
<!-- Generator: Adobe Illustrator 16.0.3, SVG Export Plug-In . SVG Version: 6.00 Build 0)  -->
<!DOCTYPE svg PUBLIC "-//W3C//DTD SVG 1.1//EN" "http://www.w3.org/Graphics/SVG/1.1/DTD/svg11.dtd">
<svg version="1.1" id="Layer_1" xmlns="http://www.w3.org/2000/svg" xmlns:xlink="http://www.w3.org/1999/xlink" x="0px" y="0px"
	 width="612px" height="792px" viewBox="0 0 612 792" enable-background="new 0 0 612 792" xml:space="preserve">
<ellipse fill="#E0E0E0" cx="199.298" cy="118.851" rx="4.697" ry="3.495"/>
<ellipse fill="#E0E0E0" cx="261.727" cy="115.356" rx="4.697" ry="3.495"/>
<ellipse fill="#E0E0E0" cx="286.07" cy="95.554" rx="4.697" ry="3.495"/>
<ellipse fill="#E0E0E0" cx="312.829" cy="38.425" rx="4.697" ry="3.495"/>
<ellipse fill="#E0E0E0" cx="257.629" cy="62.395" rx="4.696" ry="3.495"/>
<ellipse fill="#E0E0E0" cx="236.756" cy="18.623" rx="4.697" ry="3.495"/>
<ellipse fill="#E0E0E0" cx="194.601" cy="18.623" rx="4.696" ry="3.495"/>
<ellipse fill="#E0E0E0" cx="190.911" cy="48.326" rx="4.697" ry="3.495"/>
<ellipse fill="#E0E0E0" cx="222.483" cy="79.439" rx="4.697" ry="3.495"/>
<ellipse fill="#E0E0E0" cx="124.083" cy="49.685" rx="4.696" ry="3.495"/>
<ellipse fill="#E0E0E0" cx="116.516" cy="18.623" rx="4.697" ry="3.495"/>
<ellipse fill="#E0E0E0" cx="76.546" cy="30.659" rx="4.697" ry="3.495"/>
<ellipse fill="#E0E0E0" cx="76.546" cy="11.633" rx="4.697" ry="3.495"/>
<ellipse fill="#E0E0E0" cx="37.714" cy="15.128" rx="4.696" ry="3.495"/>
<ellipse fill="#E0E0E0" cx="68.979" cy="63.081" rx="4.697" ry="3.494"/>
<ellipse fill="#E0E0E0" cx="119.386" cy="210.711" rx="4.697" ry="3.495"/>
<ellipse fill="#E0E0E0" cx="54.258" cy="221.195" rx="4.697" ry="3.495"/>
<ellipse fill="#E0E0E0" cx="111.82" cy="302.509" rx="4.697" ry="3.495"/>
<ellipse fill="#E0E0E0" cx="185.208" cy="300.63" rx="4.697" ry="3.495"/>
<ellipse fill="#E0E0E0" cx="272.763" cy="306.003" rx="4.697" ry="3.495"/>
<ellipse fill="#E0E0E0" cx="266.423" cy="285.875" rx="4.697" ry="3.495"/>
<ellipse fill="#E0E0E0" cx="312.829" cy="292.865" rx="4.697" ry="3.495"/>
<ellipse fill="#E0E0E0" cx="290.766" cy="221.195" rx="4.697" ry="3.495"/>
<ellipse fill="#E0E0E0" cx="295.463" cy="163.013" rx="4.697" ry="3.495"/>
<ellipse fill="#E0E0E0" cx="308.132" cy="92.059" rx="4.696" ry="3.495"/>
<ellipse fill="#E0E0E0" cx="255.802" cy="41.919" rx="4.697" ry="3.495"/>
<ellipse fill="#E0E0E0" cx="305.262" cy="15.128" rx="4.697" ry="3.495"/>
<ellipse fill="#E0E0E0" cx="119.386" cy="124.287" rx="4.697" ry="3.494"/>
<ellipse fill="#E0E0E0" cx="88.809" cy="181.993" rx="4.696" ry="3.495"/>
<ellipse fill="#E0E0E0" cx="211.401" cy="194.613" rx="4.697" ry="3.494"/>
<ellipse fill="#E0E0E0" cx="189.905" cy="232.069" rx="4.697" ry="3.495"/>
<ellipse fill="#E0E0E0" cx="144.389" cy="251.772" rx="4.697" ry="3.495"/>
<ellipse fill="#E0E0E0" cx="79.416" cy="263.484" rx="4.697" ry="3.494"/>
<ellipse fill="#E0E0E0" cx="25.45" cy="236.24" rx="4.697" ry="3.495"/>
<ellipse fill="#E0E0E0" cx="53.215" cy="129.917" rx="4.697" ry="3.495"/>
<ellipse fill="#E0E0E0" cx="181.518" cy="152.632" rx="4.697" ry="3.495"/>
<ellipse fill="#E0E0E0" cx="173.43" cy="107.591" rx="4.696" ry="3.495"/>
<ellipse fill="#E0E0E0" cx="231.875" cy="106.814" rx="4.696" ry="3.495"/>
<ellipse fill="#E0E0E0" cx="141.675" cy="103.32" rx="4.697" ry="3.494"/>
<ellipse fill="#E0E0E0" cx="116.516" cy="151.72" rx="4.697" ry="3.495"/>
<ellipse fill="#E0E0E0" cx="28.321" cy="156.126" rx="4.697" ry="3.495"/>
<ellipse fill="#E0E0E0" cx="33.018" cy="120.792" rx="4.697" ry="3.495"/>
<ellipse fill="#E0E0E0" cx="23.624" cy="208.576" rx="4.697" ry="3.495"/>
<ellipse fill="#E0E0E0" cx="86.983" cy="214.206" rx="4.697" ry="3.495"/>
<ellipse fill="#E0E0E0" cx="76.546" cy="289.37" rx="4.697" ry="3.495"/>
<ellipse fill="#E0E0E0" cx="35.142" cy="272.61" rx="4.697" ry="3.495"/>
<ellipse fill="#E0E0E0" cx="99.851" cy="244.006" rx="4.697" ry="3.494"/>
<ellipse fill="#E0E0E0" cx="186.215" cy="259.99" rx="4.696" ry="3.495"/>
<ellipse fill="#E0E0E0" cx="168.733" cy="185.488" rx="4.697" ry="3.495"/>
<ellipse fill="#E0E0E0" cx="251.29" cy="164.373" rx="4.697" ry="3.494"/>
<ellipse fill="#E0E0E0" cx="222.483" cy="140.46" rx="4.697" ry="3.495"/>
<ellipse fill="#E0E0E0" cx="265.196" cy="247.501" rx="4.697" ry="3.495"/>
<ellipse fill="#E0E0E0" cx="227.179" cy="244.006" rx="4.697" ry="3.495"/>
<ellipse fill="#E0E0E0" cx="285.432" cy="191.118" rx="4.697" ry="3.495"/>
<ellipse fill="#E0E0E0" cx="260.499" cy="217.7" rx="4.697" ry="3.495"/>
<ellipse fill="#E0E0E0" cx="104.547" cy="80.799" rx="4.696" ry="3.495"/>
<ellipse fill="#E0E0E0" cx="48.518" cy="92.059" rx="4.697" ry="3.495"/>
<ellipse fill="#E0E0E0" cx="154.826" cy="80.799" rx="4.697" ry="3.495"/>
<ellipse fill="#E0E0E0" cx="144.389" cy="166.508" rx="4.697" ry="3.495"/>
<ellipse fill="#E0E0E0" cx="222.483" cy="289.37" rx="4.697" ry="3.495"/>
<ellipse fill="#E0E0E0" cx="150.129" cy="289.37" rx="4.697" ry="3.495"/>
<ellipse fill="#E0E0E0" cx="285.432" cy="272.61" rx="4.697" ry="3.495"/>
<ellipse fill="#E0E0E0" cx="265.196" cy="140.46" rx="7.567" ry="5.63"/>
<ellipse fill="#E0E0E0" cx="203.835" cy="166.508" rx="7.567" ry="5.63"/>
<ellipse fill="#E0E0E0" cx="121.279" cy="187.624" rx="7.567" ry="5.63"/>
<ellipse fill="#E0E0E0" cx="206.864" cy="214.206" rx="7.567" ry="5.63"/>
<ellipse fill="#E0E0E0" cx="71.849" cy="142.596" rx="7.567" ry="5.63"/>
<ellipse fill="#E0E0E0" cx="193.781" cy="82.935" rx="7.567" ry="5.629"/>
<ellipse fill="#E0E0E0" cx="217.786" cy="44.055" rx="7.566" ry="5.63"/>
<ellipse fill="#E0E0E0" cx="88.809" cy="53.957" rx="7.567" ry="5.629"/>
<ellipse fill="#E0E0E0" cx="134.108" cy="9.498" rx="7.567" ry="5.63"/>
<ellipse fill="#E0E0E0" cx="290.129" cy="62.395" rx="7.567" ry="5.63"/>
<ellipse fill="#E0E0E0" cx="28.321" cy="77.305" rx="7.567" ry="5.629"/>
<ellipse fill="#E0E0E0" cx="42.709" cy="295" rx="7.567" ry="5.63"/>
<ellipse fill="#E0E0E0" cx="231.876" cy="269.115" rx="7.567" ry="5.63"/>
<ellipse fill="#E0E0E0" cx="315.37" cy="172.138" rx="7.566" ry="5.63"/>
<ellipse fill="#E0E0E0" cx="307.803" cy="236.24" rx="7.567" ry="5.63"/>
<ellipse fill="#E0E0E0" cx="305.262" cy="120.792" rx="7.566" ry="5.631"/>
<ellipse fill="#E0E0E0" cx="124.083" cy="269.115" rx="7.566" ry="5.63"/>
<ellipse fill="#E0E0E0" cx="54.258" cy="244.006" rx="10.437" ry="7.766"/>
<ellipse fill="#E0E0E0" cx="54.258" cy="181.993" rx="10.437" ry="7.766"/>
<ellipse fill="#E0E0E0" cx="158.297" cy="134.83" rx="10.437" ry="7.766"/>
<ellipse fill="#E0E0E0" cx="39.839" cy="38.425" rx="10.437" ry="7.766"/>
<ellipse fill="#E0E0E0" cx="275.633" cy="22.893" rx="10.437" ry="7.766"/>
<ellipse fill="#E0E0E0" cx="165.263" cy="46.19" rx="10.437" ry="7.766"/>
<ellipse fill="#E0E0E0" cx="251.29" cy="92.059" rx="10.437" ry="7.766"/>
<ellipse fill="#E0E0E0" cx="247.193" cy="189.759" rx="10.437" ry="7.766"/>
<ellipse fill="#E0E0E0" cx="154.826" cy="224.303" rx="10.437" ry="7.766"/>
<ellipse fill="#E0E0E0" cx="82.286" cy="107.591" rx="10.437" ry="7.766"/>
</svg>
